<svg
  xmlns="http://www.w3.org/2000/svg"
  viewBox="0 0 64 64"
  width="64"
  height="64"
  fill="#fff"
>
  <path
    d="M32 4C16.5 4 4 16.5 4 32c0 5.1 1.4 9.9 3.8 14.1L4 60l14.1-3.8C22.1 58.6 26.9 60 32 60c15.5 0 28-12.5 28-28S47.5 4 32 4zm0 4c13.3 0 24 10.7 24 24S45.3 56 32 56c-4.4 0-8.6-1.2-12.2-3.3L12 56l3.3-7.8C13.2 44.6 12 40.4 12 36 12 22.7 22.7 12 36 12c4.4 0 8.6 1.2 12.2 3.3L56 12l-3.3 7.8C54.8 23.4 56 27.6 56 32c0 13.3-10.7 24-24 24z"
  />
  <circle cx="20" cy="32" r="4" />
  <circle cx="32" cy="32" r="4" />
  <circle cx="44" cy="32" r="4" />
</svg>
