<svg xmlns="http://www.w3.org/2000/svg" viewBox="0 0 300 80">
  <!-- Medical icon background -->
  <circle cx="35" cy="35" r="25" fill="#2A56C8" />
  
  <!-- Stethoscope symbol -->
  <path d="M25 28 C25 25, 27 23, 30 23 C33 23, 35 25, 35 28 L35 40 C35 43, 38 46, 41 46 C44 46, 47 43, 47 40 C47 37, 44 34, 41 34" 
        stroke="white" stroke-width="3" fill="none" stroke-linecap="round" />
  <circle cx="23" cy="28" r="4" fill="white" />
  
  <!-- Calendar symbol -->
  <rect x="23" y="50" width="24" height="4" fill="#2A56C8" />
  <rect x="23" y="54" width="24" height="16" fill="white" stroke="#2A56C8" stroke-width="2" />
  <line x1="30" y1="54" x2="30" y2="58" stroke="#2A56C8" stroke-width="2" />
  <line x1="40" y1="54" x2="40" y2="58" stroke="#2A56C8" stroke-width="2" />
  <circle cx="30" cy="63" r="2" fill="#2A56C8" />
  <circle cx="40" cy="63" r="2" fill="#2A56C8" />
  
  <!-- Text part of the logo -->
  <text x="68" y="43" font-family="Arial, sans-serif" font-weight="700" font-size="24" fill="#0A215B">DocConnect</text>
  <text x="68" y="60" font-family="Arial, sans-serif" font-size="12" fill="#2A56C8">Doctor Appointment Booking</text>
</svg>